# xmcd
#
# Track frame offsets: 
#        150
#        14073
#        24946
#        36550
#        51459
#        62986
#        72351
#        83199
#        98381
#        110686
#        124022
#        139747
#        160109
#        174763
#
# Disc length: 2616 seconds
#
# Revision: 0
# Processed by: cddbd v1.5.2PL0 Copyright (c) Steve Scherf et al.
# Submitted via: ExactAudioCopy v1.0b4
#
DISCID=bd0a360e
DTITLE=Sonny Boy Williamson - The Chess Years Vol 5 (LP)
DYEAR=1900
DGENRE=Blues
TTITLE0=Help Me
TTITLE1=One Way Out
TTITLE2=Bring It On Home
TTITLE3=My Younger Days
TTITLE4=Stop Cryin'
TTITLE5=Trying To Get Back On My Feed
TTITLE6=Understand My Life
TTITLE7=Decoration Day
TTITLE8=One Way Out
TTITLE9=(I Want You) Close To Me
TTITLE10=Don't Make A Mistake
TTITLE11=Find Another Woman
TTITLE12=I Can't Be Alone
TTITLE13=My Name Is Sonny Boy
EXTD=
EXTT0=
EXTT1=
EXTT2=
EXTT3=
EXTT4=
EXTT5=
EXTT6=
EXTT7=
EXTT8=
EXTT9=
EXTT10=
EXTT11=
EXTT12=
EXTT13=
PLAYORDER=
